# xmcd CD database file
#
# Track frame offsets:
#	187
#	17862
#	38810
#	67282
#	87140
#	107820
#	126072
#	146432
#	165580
#	182265
#	200375
#
# Disc length: 2928 seconds
#
# Revision: 0
# Processed by: cddbd v1.5.1PL0 Copyright (c) Steve Scherf et al.
# Submitted via: CDex 1.51
#
DISCID=900b6e0b
DTITLE=阿川泰子 - Journey
DYEAR=1980
DGENRE=Jazz
TTITLE0=Sentimental Journey
TTITLE1=Take The "A" Train
TTITLE2=Lover Come Back To Me
TTITLE3=Moonlight Serenade
TTITLE4=In A Sentimental Mood
TTITLE5=Stardust
TTITLE6=Lullaby Of Birdland
TTITLE7=Whisper Not
TTITLE8=My Foolish Heart
TTITLE9=You'd Be So Nice To Come To
TTITLE10=Good-bye
EXTD=YEAR: 1980
EXTT0=
EXTT1=
EXTT2=
EXTT3=
EXTT4=
EXTT5=
EXTT6=
EXTT7=
EXTT8=
EXTT9=
EXTT10=
PLAYORDER=
